<?xml version="1.0" standalone="no"?>
<!DOCTYPE svg PUBLIC "-//W3C//DTD SVG 1.1//EN" "http://www.w3.org/Graphics/SVG/1.1/DTD/svg11.dtd">
<svg xmlns="http://www.w3.org/2000/svg" width="1645" height="367" viewBox="0 0 1645 367" fill="none">
<path d="M0 140.383C0 121.499 2.88061 104.536 8.64183 89.4923C14.7231 74.1291 23.2049 61.0063 34.0872 50.124C45.2896 38.9216 58.5724 30.4398 73.9357 24.6786C89.2989 18.5973 106.262 15.5566 124.826 15.5566H332.23L278.459 99.5744H132.508C120.025 99.5744 109.943 103.415 102.262 111.097C94.58 118.779 90.7392 129.021 90.7392 141.823C90.7392 154.306 94.58 164.388 102.262 172.07C109.943 179.751 120.025 183.592 132.508 183.592H222.767L166.595 267.61H124.826C106.262 267.61 89.2989 264.729 73.9357 258.968C58.5724 252.887 45.2896 244.405 34.0872 233.523C23.2049 222.32 14.7231 209.038 8.64183 193.674C2.88061 178.311 0 161.348 0 142.784V140.383Z" fill="#FFFFFF"/>
<path d="M445.543 226.799C445.543 245.363 442.502 262.327 436.421 277.69C430.66 293.053 422.178 306.336 410.976 317.538C400.093 328.421 386.97 336.903 371.607 342.984C356.564 348.745 339.6 351.626 320.716 351.626H113.312L167.084 267.608H312.555C325.037 267.608 335.119 263.767 342.801 256.085C350.483 248.404 354.324 238.162 354.324 225.359C354.324 212.876 350.483 202.794 342.801 195.113C335.119 187.431 325.037 183.59 312.555 183.59H222.776L278.948 99.5723H320.716C339.6 99.5723 356.564 102.613 371.607 108.694C386.97 114.455 400.093 122.937 410.976 134.14C422.178 145.022 430.66 158.145 436.421 173.508C442.502 188.551 445.543 205.515 445.543 224.399V226.799Z" fill="#FFFFFF"/>
<path d="M545.374 172.743C501.913 172.743 477.816 152.089 477.816 120.892H522.137C522.137 132.08 529.237 139.61 547.31 139.61C559.789 139.61 567.75 135.307 567.75 127.131C567.75 115.513 561.94 114.007 535.907 110.134C499.547 104.755 481.044 90.1252 481.044 62.5858C481.044 30.7434 505.786 11.8101 545.804 11.8101C583.456 11.8101 608.628 30.7434 608.628 59.1434H564.737C564.092 47.5252 554.195 44.298 544.728 44.298C533.54 44.298 526.225 49.0313 526.225 56.7767C526.225 68.1798 535.692 68.8252 559.789 72.4828C584.747 76.1404 613.146 83.0252 613.146 122.613C613.146 152.089 590.771 172.743 545.374 172.743ZM625.753 170.592V13.7465H696.968C731.607 13.7465 754.414 33.1101 754.414 66.8888C754.414 98.7312 733.759 120.677 696.968 120.677H669.429V170.592H625.753ZM689.223 50.3222H669.429V87.3282H689.223C698.474 87.3282 710.092 85.3919 710.092 68.6101C710.092 52.4737 698.474 50.3222 689.223 50.3222ZM764.853 170.592V13.7465H846.611C885.768 13.7465 904.271 30.3131 904.271 60.4343C904.271 78.9373 893.514 93.7828 877.378 97.4403V98.9464C892.223 102.174 900.184 111.425 900.184 128.852V151.658C900.184 157.683 900.184 164.352 902.981 170.592H859.09C857.368 167.149 856.508 160.049 856.508 151.874V136.383C856.508 125.41 852.205 118.74 836.499 118.74H808.529V170.592H764.853ZM808.529 84.5313H840.156C854.141 84.5313 859.52 76.7858 859.52 66.4585C859.52 53.7646 851.559 49.4616 840.156 49.4616H808.529V84.5313ZM916.981 170.592V13.7465H960.656V170.592H916.981ZM981.702 170.592V13.7465H1033.12L1084.11 109.919H1085.84L1084.33 62.1555V13.7465H1126.28V170.592H1077.88L1026.88 77.8616H1025.16L1026.24 119.816V170.592H981.702ZM1177.4 170.592V51.1828H1134.15V13.7465H1265.61V51.1828H1221.07V170.592H1177.4ZM1330.6 172.743C1287.14 172.743 1263.04 152.089 1263.04 120.892H1307.36C1307.36 132.08 1314.46 139.61 1332.54 139.61C1345.02 139.61 1352.98 135.307 1352.98 127.131C1352.98 115.513 1347.17 114.007 1321.13 110.134C1284.77 104.755 1266.27 90.1252 1266.27 62.5858C1266.27 30.7434 1291.01 11.8101 1331.03 11.8101C1368.68 11.8101 1393.86 30.7434 1393.86 59.1434H1349.96C1349.32 47.5252 1339.42 44.298 1329.96 44.298C1318.77 44.298 1311.45 49.0313 1311.45 56.7767C1311.45 68.1798 1320.92 68.8252 1345.02 72.4828C1369.97 76.1404 1398.37 83.0252 1398.37 122.613C1398.37 152.089 1376 172.743 1330.6 172.743ZM1489.32 172.743C1459.85 172.743 1439.19 156.607 1439.19 129.498C1439.19 111.855 1451.46 95.504 1469.96 87.9737C1459.42 77.8616 1453.39 65.5979 1453.39 52.904C1453.39 28.1616 1474.26 11.595 1503.09 11.595C1530.2 11.595 1548.7 28.3768 1548.7 51.6131C1548.7 68.8252 1537.95 82.5949 1521.59 89.4797V90.7706L1539.45 109.919C1543.11 103.465 1545.48 94.6434 1545.91 85.607H1588.72V116.159H1572.8C1570.65 123.258 1566.78 130.143 1562.69 135.092L1595.61 170.592H1546.12L1534.29 157.683C1523.96 167.58 1506.53 172.743 1489.32 172.743ZM1501.37 70.3313H1502.88C1509.55 66.8888 1513.42 61.0798 1513.42 55.0555C1513.42 48.8161 1509.33 44.5131 1503.31 44.5131C1497.07 44.5131 1492.55 49.2464 1492.55 55.0555C1492.55 60.4343 1496.64 66.4585 1501.37 70.3313ZM1480.29 124.334C1480.29 133.371 1486.96 139.18 1496.42 139.18C1502.45 139.18 1508.26 137.458 1511.91 133.371L1490.18 109.489C1484.59 112.071 1480.29 117.019 1480.29 124.334ZM545.374 355.743C501.913 355.743 477.816 335.089 477.816 303.892H522.137C522.137 315.08 529.237 322.61 547.31 322.61C559.789 322.61 567.75 318.307 567.75 310.131C567.75 298.513 561.94 297.007 535.907 293.134C499.547 287.755 481.044 273.125 481.044 245.586C481.044 213.743 505.786 194.81 545.804 194.81C583.456 194.81 608.628 213.743 608.628 242.143H564.737C564.092 230.525 554.195 227.298 544.728 227.298C533.54 227.298 526.225 232.031 526.225 239.777C526.225 251.18 535.692 251.825 559.789 255.483C584.747 259.14 613.146 266.025 613.146 305.613C613.146 335.089 590.771 355.743 545.374 355.743ZM625.753 353.592V196.746H677.174L728.165 292.919H729.886L728.38 245.156V196.746H770.335V353.592H721.926L670.935 260.862H669.214L670.289 302.816V353.592H625.753ZM791.327 353.592V196.746H909.66V233.752H835.003V256.989H898.903V291.628H835.003V316.586H910.306V353.592H791.327ZM910.95 353.592L959.789 196.746H1021.97L1070.81 353.592H1025.41L1017.23 325.622H964.522L956.346 353.592H910.95ZM974.204 292.489H1007.55L998.301 260.862L991.631 235.904H990.125L983.456 260.862L974.204 292.489ZM1076.67 353.592V196.746H1120.35V263.013L1171.55 196.746H1223.19L1167.68 261.722L1223.62 353.592H1172.2L1137.77 293.349L1120.35 313.574V353.592H1076.67ZM1231.32 353.592V196.746H1349.65V233.752H1275V256.989H1338.9V291.628H1275V316.586H1350.3V353.592H1231.32ZM1366.22 353.592V196.746H1447.98C1487.13 196.746 1505.64 213.313 1505.64 243.434C1505.64 261.937 1494.88 276.783 1478.74 280.44V281.946C1493.59 285.174 1501.55 294.425 1501.55 311.852V334.658C1501.55 340.683 1501.55 347.352 1504.35 353.592H1460.45C1458.73 350.149 1457.87 343.049 1457.87 334.874V319.383C1457.87 308.41 1453.57 301.74 1437.86 301.74H1409.89V353.592H1366.22ZM1409.89 267.531H1441.52C1455.51 267.531 1460.88 259.786 1460.88 249.459C1460.88 236.765 1452.92 232.462 1441.52 232.462H1409.89V267.531ZM1576.44 355.743C1532.98 355.743 1508.88 335.089 1508.88 303.892H1553.2C1553.2 315.08 1560.3 322.61 1578.37 322.61C1590.85 322.61 1598.81 318.307 1598.81 310.131C1598.81 298.513 1593 297.007 1566.97 293.134C1530.61 287.755 1512.11 273.125 1512.11 245.586C1512.11 213.743 1536.85 194.81 1576.87 194.81C1614.52 194.81 1639.69 213.743 1639.69 242.143H1595.8C1595.15 230.525 1585.26 227.298 1575.79 227.298C1564.6 227.298 1557.29 232.031 1557.29 239.777C1557.29 251.18 1566.75 251.825 1590.85 255.483C1615.81 259.14 1644.21 266.025 1644.21 305.613C1644.21 335.089 1621.83 355.743 1576.44 355.743Z" fill="#FFFFFF"/>
</svg>