<?xml version="1.0" standalone="no"?>
<!DOCTYPE svg PUBLIC "-//W3C//DTD SVG 1.1//EN" "http://www.w3.org/Graphics/SVG/1.1/DTD/svg11.dtd">
<svg xmlns="http://www.w3.org/2000/svg" width="446" height="337" viewBox="0 0 446 337" fill="none">
<path d="M0 125.383C0 106.499 2.88061 89.5355 8.64183 74.4923C14.7231 59.1291 23.2049 46.0063 34.0872 35.124C45.2896 23.9216 58.5724 15.4398 73.9357 9.67857C89.2989 3.59728 106.262 0.556641 124.826 0.556641H332.23L278.459 84.5744H132.508C120.025 84.5744 109.943 88.4153 102.262 96.0969C94.58 103.779 90.7392 114.021 90.7392 126.823C90.7392 139.306 94.58 149.388 102.262 157.07C109.943 164.751 120.025 168.592 132.508 168.592H222.767L166.595 252.61H124.826C106.262 252.61 89.2989 249.729 73.9357 243.968C58.5724 237.887 45.2896 229.405 34.0872 218.523C23.2049 207.32 14.7231 194.038 8.64183 178.674C2.88061 163.311 0 146.348 0 127.784V125.383Z" fill="#0A0A0A"/>
<path d="M445.543 211.799C445.543 230.363 442.502 247.327 436.421 262.69C430.66 278.053 422.178 291.336 410.976 302.538C400.093 313.421 386.97 321.903 371.607 327.984C356.564 333.745 339.6 336.626 320.716 336.626H113.312L167.084 252.608H312.555C325.037 252.608 335.119 248.767 342.801 241.085C350.483 233.404 354.324 223.162 354.324 210.359C354.324 197.876 350.483 187.794 342.801 180.113C335.119 172.431 325.037 168.59 312.555 168.59H222.776L278.948 84.5723H320.716C339.6 84.5723 356.564 87.6129 371.607 93.6942C386.97 99.4554 400.093 107.937 410.976 119.14C422.178 130.022 430.66 143.145 436.421 158.508C442.502 173.551 445.543 190.515 445.543 209.399V211.799Z" fill="#0A0A0A"/>
</svg>